<?xml version="1.0" encoding="UTF-8"?>
<svg version="1.1" viewBox="0 0 510.64 430.98" xmlns="http://www.w3.org/2000/svg">
<metadata>
<rdf:RDF>
<cc:Work>
<dc:format>image/svg+xml</dc:format>
<dc:title/>
</cc:Work>
</rdf:RDF>
</metadata>
<path d="m452.49 39.92c-6.2624 8e-3 -12.65 0.26713-18.957 0.4707h-373.19c-30.256 0-65.568-2e-3 -60.158 74.963v213.71c0 31.363 4.1951 64.59 60.158 61.039h400.04c33.214 0 54.11-16.728 50.562-61.039v-219.52c5.5545-62.431-24.64-69.668-58.457-69.623zm-401.83 30.145h409.72l-162.02 135.43c-43.662 39.063-45.05 35.273-92.158-5.3242zm-20.572 21.801 147.46 122.7-147.46 98.156zm451.41 0v220.85l-147.69-98.156zm-279.41 142.33c33.363 34.965 69.021 38.951 107.86 0l171.55 114.37c-5.0952 16.429-15.539 11.869-36.523 11.869h-384.63c-25.919 2.511-27.426-5.693-30.256-11.869z" stroke="#000" stroke-width="1px"/>
</svg>
