<?xml version="1.0" encoding="UTF-8"?>
<svg version="1.1" viewBox="0 0 681 681" xmlns="http://www.w3.org/2000/svg">
<metadata>
<rdf:RDF>
<cc:Work>
<dc:format>image/svg+xml</dc:format>
<dc:title/>
</cc:Work>
</rdf:RDF>
</metadata>
<path d="m219.08 680.71c64.577 4.14 55.548-4.6245 55.548-62.697v-103.59c-0.52696-18.042 0-47.612 40.398-47.612h47.973c28.062-1.0767 44.06 10.714 43.284 40.398v138.51c-3.6705 43.304 17.319 34.988 55.548 34.988h72.14c30.55 0 78.993-21.164 73.943-89.453v-188.65h12.624c53.154 0 86.983-73.412 33.184-114.7l-256.1-256.46c-16.526-20.199-59.835-56.567-109.65-4.6891l-260.79 260.06c-54.857 49.776-17.332 115.78 35.709 115.78h10.46v196.22c0 15.25 0 87.65 91.618 81.879h70.336l-16.231-55.548h-73.943c-16.592 0-16.592-0.15826-16.592-22.003v-191.53c0-22.795 2.8056-34.855-7.9827-44.341-8.9034-7.829-17.533-23.034-37.465-19.502-16.837 0-52.854 6.5071-20.921-23.085l258.98-262.59c19.058-23.337 25.748-14.428 40.908-0.80891l253.2 259.53c22.977 18.373 21.102 27.438 2.383 26.954h-21.642c-9.2563 0-18.915 1.6187-30.866 14.032-8.3082 8.6292-12.779 15.51-12.779 28.531v214.26c0 13.292 6.1625 21.336-14.789 20.56h-75.747v-114.34c4.5313-48.56-49.068-101.93-93.782-99.192h-49.055c-65.229-3.8258-99.914 63.754-99.914 90.535z" fill="#fff" stroke="#fff" stroke-width="1px"/>
</svg>
