<?xml version="1.0" encoding="UTF-8"?>
<svg version="1.1" viewBox="0 0 682.67 682.67" xmlns="http://www.w3.org/2000/svg">
<metadata>
<rdf:RDF>
<cc:Work>
<dc:format>image/svg+xml</dc:format>
<dc:title/>
</cc:Work>
</rdf:RDF>
</metadata>
<g transform="translate(-2.754e-7 -1.8422e-6)" fill="#fff" stroke="#fff" stroke-width="1px">
<path d="m342.4 165.7a175.85 175.34 0 0 0-175.85 175.34 175.85 175.34 0 0 0 175.85 175.34 175.85 175.34 0 0 0 175.85-175.34 175.85 175.34 0 0 0-175.85-175.34zm0.20703 62.707a113.86 113.53 0 0 1 113.86 113.53 113.86 113.53 0 0 1-113.86 113.53 113.86 113.53 0 0 1-113.86-113.53 113.86 113.53 0 0 1 113.86-113.53z"/>
<circle cx="525.02" cy="158.96" r="40.971"/>
<path d="m1.4463 420.85c0 107.66 0 274.25 266.85 261.81h128c108.89 0 299.73 15.636 286.37-261.81v-146.05c7.9548-193.08-52.068-285.65-286.37-274.8h-128c-191.2-9.759-275.22 61.107-266.85 274.8v161.9l61.469-0.51136v-161.39c0-156.7 13.74-213.69 205.38-213.69h128c166.71 0 234.76 11.041 226.35 213.69v146.05c8.678 212.21-100.02 200.71-226.35 200.71h-128c-221.66 9.6998-198.08-99.606-205.38-200.71z"/>
</g>
</svg>
